<svg xmlns="http://www.w3.org/2000/svg"  viewBox="0 0 100 100" width="100px" height="100px"><path fill="#c7ede6" d="M87.215,56.71C88.35,54.555,89,52.105,89,49.5c0-6.621-4.159-12.257-10.001-14.478 C78.999,35.015,79,35.008,79,35c0-11.598-9.402-21-21-21c-9.784,0-17.981,6.701-20.313,15.757C36.211,29.272,34.638,29,33,29 c-7.692,0-14.023,5.793-14.89,13.252C12.906,43.353,9,47.969,9,53.5C9,59.851,14.149,65,20.5,65c0.177,0,0.352-0.012,0.526-0.022 C21.022,65.153,21,65.324,21,65.5C21,76.822,30.178,86,41.5,86c6.437,0,12.175-2.972,15.934-7.614C59.612,80.611,62.64,82,66,82 c4.65,0,8.674-2.65,10.666-6.518C77.718,75.817,78.837,76,80,76c6.075,0,11-4.925,11-11C91,61.689,89.53,58.727,87.215,56.71z"/><path fill="#fdfcef" d="M78.875,38.5c0,0,3.64,0,6.125,0s4.5-2.015,4.5-4.5c0-2.333-1.782-4.229-4.055-4.455 C85.467,29.364,85.5,29.187,85.5,29c0-2.485-2.015-4.5-4.5-4.5c-1.438,0-2.703,0.686-3.527,1.736 C77.333,23.6,75.171,21.5,72.5,21.5c-2.761,0-5,2.239-5,5c0,0.446,0.077,0.87,0.187,1.282C67.045,27.005,66.086,26.5,65,26.5 c-1.781,0-3.234,1.335-3.455,3.055C61.364,29.533,61.187,29.5,61,29.5c-2.485,0-4.5,2.015-4.5,4.5s2.015,4.5,4.5,4.5s9.5,0,9.5,0 h5.375V39h3V38.5z"/><path fill="#472b29" d="M72.5,21c-3.033,0-5.5,2.467-5.5,5.5c0,0.016,0,0.031,0,0.047C66.398,26.192,65.71,26,65,26 c-1.831,0-3.411,1.261-3.858,3.005C61.095,29.002,61.048,29,61,29c-2.757,0-5,2.243-5,5s2.243,5,5,5h14.875 c0.276,0,0.5-0.224,0.5-0.5s-0.224-0.5-0.5-0.5H61c-2.206,0-4-1.794-4-4s1.794-4,4-4c0.117,0,0.23,0.017,0.343,0.032l0.141,0.019 c0.021,0.003,0.041,0.004,0.062,0.004c0.246,0,0.462-0.185,0.495-0.437C62.232,28.125,63.504,27,65,27 c0.885,0,1.723,0.401,2.301,1.1c0.098,0.118,0.241,0.182,0.386,0.182c0.078,0,0.156-0.018,0.228-0.056 c0.209-0.107,0.314-0.346,0.254-0.573C68.054,27.218,68,26.852,68,26.5c0-2.481,2.019-4.5,4.5-4.5c2.381,0,4.347,1.872,4.474,4.263 c0.011,0.208,0.15,0.387,0.349,0.45c0.05,0.016,0.101,0.024,0.152,0.024c0.15,0,0.296-0.069,0.392-0.192 C78.638,25.563,79.779,25,81,25c2.206,0,4,1.794,4,4c0,0.117-0.017,0.23-0.032,0.343l-0.019,0.141 c-0.016,0.134,0.022,0.268,0.106,0.373s0.207,0.172,0.34,0.185C87.451,30.247,89,31.949,89,34c0,2.206-1.794,4-4,4h-6.125 c-0.276,0-0.5,0.224-0.5,0.5s0.224,0.5,0.5,0.5H85c2.757,0,5-2.243,5-5c0-2.397-1.689-4.413-4.003-4.877 C85.999,29.082,86,29.041,86,29c0-2.757-2.243-5-5-5c-1.176,0-2.293,0.416-3.183,1.164C77.219,22.76,75.055,21,72.5,21L72.5,21z"/><path fill="#472b29" d="M84.883,29.5c-1.326,0-2.508,0.897-2.874,2.182c-0.038,0.133,0.039,0.271,0.172,0.309 C82.205,31.997,82.228,32,82.25,32c0.109,0,0.209-0.072,0.24-0.182C82.795,30.748,83.779,30,84.883,30 c0.117,0,0.23,0.014,0.342,0.029c0.012,0.002,0.023,0.003,0.035,0.003c0.121,0,0.229-0.092,0.246-0.217 c0.019-0.137-0.077-0.263-0.214-0.281C85.158,29.516,85.022,29.5,84.883,29.5L84.883,29.5z"/><path fill="#fff" d="M15.405,51H5.5C5.224,51,5,50.776,5,50.5S5.224,50,5.5,50h9.905c0.276,0,0.5,0.224,0.5,0.5 S15.682,51,15.405,51z"/><path fill="#fff" d="M18.5,51h-1c-0.276,0-0.5-0.224-0.5-0.5s0.224-0.5,0.5-0.5h1c0.276,0,0.5,0.224,0.5,0.5 S18.777,51,18.5,51z"/><path fill="#fff" d="M23.491,53H14.5c-0.276,0-0.5-0.224-0.5-0.5s0.224-0.5,0.5-0.5h8.991c0.276,0,0.5,0.224,0.5,0.5 S23.767,53,23.491,53z"/><path fill="#fff" d="M12.5,53h-1c-0.276,0-0.5-0.224-0.5-0.5s0.224-0.5,0.5-0.5h1c0.276,0,0.5,0.224,0.5,0.5 S12.777,53,12.5,53z"/><path fill="#fff" d="M9.5,53h-2C7.224,53,7,52.776,7,52.5S7.224,52,7.5,52h2c0.276,0,0.5,0.224,0.5,0.5S9.777,53,9.5,53z"/><path fill="#fff" d="M15.5,55h-2c-0.276,0-0.5-0.224-0.5-0.5s0.224-0.5,0.5-0.5h2c0.276,0,0.5,0.224,0.5,0.5 S15.776,55,15.5,55z"/><path fill="#fff" d="M18.5,46c-0.177,0-0.823,0-1,0c-0.276,0-0.5,0.224-0.5,0.5s0.224,0.5,0.5,0.5c0.177,0,0.823,0,1,0 c0.276,0,0.5-0.224,0.5-0.5S18.776,46,18.5,46z"/><path fill="#fff" d="M18.5,48c-0.177,0-4.823,0-5,0c-0.276,0-0.5,0.224-0.5,0.5s0.224,0.5,0.5,0.5c0.177,0,4.823,0,5,0 c0.276,0,0.5-0.224,0.5-0.5S18.776,48,18.5,48z"/><path fill="#fff" d="M23.5,50c-0.177,0-2.823,0-3,0c-0.276,0-0.5,0.224-0.5,0.5s0.224,0.5,0.5,0.5c0.177,0,2.823,0,3,0 c0.276,0,0.5-0.224,0.5-0.5S23.776,50,23.5,50z"/><path fill="#fff" d="M87.5,66h-10c-0.276,0-0.5-0.224-0.5-0.5s0.224-0.5,0.5-0.5h10c0.276,0,0.5,0.224,0.5,0.5 S87.776,66,87.5,66z"/><path fill="#fff" d="M91.5,66h-2c-0.276,0-0.5-0.224-0.5-0.5s0.224-0.5,0.5-0.5h2c0.276,0,0.5,0.224,0.5,0.5 S91.776,66,91.5,66z"/><path fill="#fff" d="M96.5,68h-10c-0.276,0-0.5-0.224-0.5-0.5s0.224-0.5,0.5-0.5h10c0.276,0,0.5,0.224,0.5,0.5 S96.777,68,96.5,68z"/><path fill="#fff" d="M84.5,68h-1c-0.276,0-0.5-0.224-0.5-0.5s0.224-0.5,0.5-0.5h1c0.276,0,0.5,0.224,0.5,0.5 S84.776,68,84.5,68z"/><path fill="#fff" d="M81.375,68H79.5c-0.276,0-0.5-0.224-0.5-0.5s0.224-0.5,0.5-0.5h1.875c0.276,0,0.5,0.224,0.5,0.5 S81.651,68,81.375,68z"/><path fill="#fff" d="M90.5,64h-5c-0.276,0-0.5-0.224-0.5-0.5s0.224-0.5,0.5-0.5h5c0.276,0,0.5,0.224,0.5,0.5 S90.777,64,90.5,64z"/><path fill="#fff" d="M87.5,70h-2c-0.276,0-0.5-0.224-0.5-0.5s0.224-0.5,0.5-0.5h2c0.276,0,0.5,0.224,0.5,0.5 S87.776,70,87.5,70z"/><circle cx="50" cy="50" r="23" fill="#d5d3c1"/><path fill="#472b29" d="M50,27.4c12.462,0,22.6,10.138,22.6,22.6S62.462,72.6,50,72.6S27.4,62.462,27.4,50 S37.538,27.4,50,27.4 M50,26c-13.255,0-24,10.745-24,24s10.745,24,24,24s24-10.745,24-24S63.255,26,50,26L50,26z"/><circle cx="50" cy="50" r="20.5" fill="#848484"/><path fill="#472b29" d="M66.999,38.788c-0.08,0-0.159-0.039-0.207-0.11C63.015,33.087,56.737,29.75,50,29.75 c-0.811,0-1.627,0.048-2.425,0.144c-0.134,0.017-0.262-0.082-0.277-0.218c-0.017-0.137,0.081-0.262,0.219-0.278 c0.817-0.098,1.652-0.147,2.483-0.147c6.903,0,13.335,3.42,17.206,9.148c0.077,0.115,0.047,0.27-0.067,0.347 C67.096,38.774,67.048,38.788,66.999,38.788z"/><path fill="#472b29" d="M69.104,42.797c-0.1,0-0.194-0.061-0.232-0.159c-0.233-0.597-0.5-1.193-0.793-1.772 c-0.063-0.123-0.014-0.273,0.109-0.336c0.123-0.061,0.273-0.012,0.336,0.11c0.301,0.593,0.574,1.204,0.813,1.816 c0.051,0.128-0.013,0.273-0.142,0.324C69.165,42.792,69.134,42.797,69.104,42.797z"/><path fill="#472b29" d="M63.49,65.687c-0.069,0-0.139-0.029-0.188-0.085c-0.091-0.104-0.08-0.262,0.023-0.353 c4.401-3.85,6.925-9.407,6.925-15.249c0-1.791-0.234-3.567-0.695-5.281c-0.036-0.133,0.043-0.271,0.176-0.306 c0.14-0.034,0.271,0.043,0.307,0.176C70.51,46.345,70.75,48.166,70.75,50c0,5.985-2.586,11.68-7.095,15.625 C63.607,65.666,63.549,65.687,63.49,65.687z"/><path fill="#472b29" d="M59.465,68.439c-0.09,0-0.177-0.049-0.222-0.135c-0.063-0.122-0.017-0.273,0.106-0.337 c0.64-0.334,1.27-0.707,1.872-1.108c0.114-0.077,0.27-0.046,0.347,0.069c0.076,0.115,0.046,0.271-0.069,0.347 c-0.617,0.411-1.263,0.794-1.919,1.136C59.544,68.431,59.504,68.439,59.465,68.439z"/><path fill="#472b29" d="M50,70.75c-7.714,0-14.748-4.24-18.356-11.066c-0.064-0.122-0.019-0.273,0.104-0.338 c0.121-0.062,0.273-0.018,0.338,0.104c3.522,6.662,10.387,10.8,17.915,10.8c2.555,0,5.046-0.47,7.402-1.396 c0.131-0.051,0.274,0.013,0.324,0.141c0.051,0.129-0.013,0.274-0.141,0.324C55.17,70.269,52.618,70.75,50,70.75z"/><circle cx="50" cy="50" r="16.5" fill="#848484"/><path fill="#b2b0a6" d="M50,40.5c-5.25,0-9.5,4.25-9.5,9.5s4.25,9.5,9.5,9.5s9.5-4.25,9.5-9.5S55.25,40.5,50,40.5z M50,57.5 c-4.14,0-7.5-3.36-7.5-7.5s3.36-7.5,7.5-7.5s7.5,3.36,7.5,7.5S54.14,57.5,50,57.5z"/><path fill="#472b29" d="M50,58c-4.411,0-8-3.589-8-8s3.589-8,8-8s8,3.589,8,8S54.411,58,50,58z M50,43c-3.859,0-7,3.14-7,7 s3.141,7,7,7s7-3.14,7-7S53.859,43,50,43z"/><path fill="#472b29" d="M50,60c-5.514,0-10-4.486-10-10s4.486-10,10-10s10,4.486,10,10S55.514,60,50,60z M50,41 c-4.963,0-9,4.038-9,9s4.037,9,9,9s9-4.038,9-9S54.963,41,50,41z"/><path fill="#472b29" d="M30.915,57.75c-0.1,0-0.194-0.06-0.232-0.159c-0.508-1.292-0.886-2.638-1.123-4.002 c-0.023-0.136,0.067-0.266,0.203-0.289c0.138-0.029,0.266,0.067,0.289,0.203c0.231,1.331,0.601,2.645,1.096,3.905 c0.051,0.128-0.013,0.273-0.141,0.324C30.977,57.744,30.945,57.75,30.915,57.75z"/><path fill="#472b29" d="M29.505,49.817c-0.002,0-0.003,0-0.005,0c-0.139-0.003-0.248-0.117-0.245-0.255 c0.156-7.557,4.418-14.436,11.123-17.951c0.122-0.064,0.274-0.017,0.338,0.105c0.063,0.123,0.017,0.273-0.105,0.337 c-6.544,3.431-10.703,10.144-10.855,17.519C29.752,49.709,29.641,49.817,29.505,49.817z"/><path fill="#472b29" d="M42.506,31.163c-0.1,0-0.194-0.06-0.232-0.159c-0.051-0.128,0.013-0.273,0.141-0.324 c0.962-0.378,1.962-0.687,2.972-0.916c0.135-0.032,0.27,0.054,0.3,0.188c0.03,0.134-0.054,0.269-0.188,0.299 c-0.986,0.224-1.962,0.524-2.899,0.893C42.567,31.158,42.536,31.163,42.506,31.163z"/><path fill="#d5d3c1" d="M50,33.5c-9.11,0-16.5,7.39-16.5,16.5S40.89,66.5,50,66.5S66.5,59.11,66.5,50S59.11,33.5,50,33.5z M46.18,37.05c1.21-0.36,2.49-0.55,3.82-0.55c6.53,0,11.98,4.64,13.22,10.8c0.13,0.62-0.35,1.2-0.98,1.2H52.7 c-1.11,0-2.13-0.61-2.65-1.59l-4.47-8.43C45.28,37.93,45.57,37.23,46.18,37.05z M40.19,59.27C37.9,56.85,36.5,53.59,36.5,50 c0-4.19,1.91-7.93,4.9-10.41c0.49-0.41,1.23-0.26,1.53,0.3l4.45,8.38c0.53,0.99,0.45,2.2-0.19,3.12l-5.44,7.77 C41.38,59.69,40.62,59.74,40.19,59.27z M63.22,52.7C61.98,58.86,56.53,63.5,50,63.5c-1.91,0-3.73-0.4-5.38-1.12 c-0.58-0.25-0.78-0.97-0.42-1.49l5.68-8.11c0.57-0.8,1.48-1.28,2.46-1.28h9.9C62.87,51.5,63.35,52.08,63.22,52.7z"/><path fill="#472b29" d="M50,67c-9.374,0-17-7.626-17-17s7.626-17,17-17s17,7.626,17,17S59.374,67,50,67z M50,34 c-8.822,0-16,7.178-16,16s7.178,16,16,16s16-7.178,16-16S58.822,34,50,34z"/><path fill="#472b29" d="M50,34c-0.276,0-0.5-0.224-0.5-0.5v-2c0-0.276,0.224-0.5,0.5-0.5s0.5,0.224,0.5,0.5v2 C50.5,33.776,50.276,34,50,34z"/><path fill="#472b29" d="M52.866,34.25c-0.029,0-0.059-0.002-0.088-0.008c-0.271-0.048-0.453-0.307-0.405-0.579l0.348-1.969 c0.048-0.272,0.312-0.455,0.579-0.405c0.271,0.048,0.453,0.307,0.405,0.579l-0.348,1.969C53.314,34.08,53.104,34.25,52.866,34.25z"/><path fill="#472b29" d="M55.644,34.995c-0.057,0-0.114-0.01-0.171-0.03c-0.26-0.094-0.394-0.381-0.299-0.641l0.684-1.879 c0.094-0.259,0.381-0.393,0.641-0.299c0.26,0.094,0.394,0.381,0.299,0.641l-0.684,1.879C56.04,34.869,55.848,34.995,55.644,34.995z"/><path fill="#472b29" d="M58.25,36.21c-0.085,0-0.171-0.021-0.25-0.067c-0.239-0.138-0.321-0.444-0.183-0.683l1-1.732 c0.138-0.24,0.443-0.32,0.683-0.183c0.239,0.138,0.321,0.444,0.183,0.683l-1,1.732C58.591,36.121,58.422,36.21,58.25,36.21z"/><path fill="#472b29" d="M60.606,37.86c-0.113,0-0.228-0.039-0.321-0.117c-0.212-0.178-0.239-0.493-0.062-0.705l1.285-1.532 c0.177-0.211,0.493-0.238,0.704-0.062c0.212,0.178,0.239,0.493,0.062,0.705l-1.285,1.532C60.891,37.8,60.749,37.86,60.606,37.86z"/><path fill="#472b29" d="M62.64,39.894c-0.143,0-0.284-0.061-0.383-0.179c-0.178-0.211-0.15-0.527,0.062-0.704l1.532-1.286 c0.212-0.179,0.526-0.151,0.704,0.062c0.178,0.211,0.15,0.527-0.062,0.704l-1.532,1.286C62.867,39.855,62.753,39.894,62.64,39.894z"/><path fill="#472b29" d="M64.289,42.25c-0.172,0-0.341-0.09-0.433-0.25c-0.139-0.239-0.057-0.545,0.183-0.683l1.732-1 c0.238-0.138,0.545-0.056,0.683,0.183c0.139,0.239,0.057,0.545-0.183,0.683l-1.732,1C64.46,42.229,64.374,42.25,64.289,42.25z"/><path fill="#472b29" d="M65.505,44.856c-0.204,0-0.396-0.126-0.47-0.329c-0.095-0.26,0.039-0.546,0.299-0.641l1.88-0.684 c0.26-0.095,0.547,0.04,0.641,0.299c0.095,0.26-0.039,0.546-0.299,0.641l-1.88,0.684C65.619,44.847,65.562,44.856,65.505,44.856z"/><path fill="#472b29" d="M66.248,47.635c-0.237,0-0.448-0.17-0.491-0.413c-0.048-0.272,0.134-0.531,0.405-0.579l1.97-0.347 c0.265-0.051,0.53,0.132,0.579,0.405c0.048,0.272-0.134,0.531-0.405,0.579l-1.97,0.347C66.307,47.632,66.277,47.635,66.248,47.635z"/><path fill="#472b29" d="M68.5,50.5h-2c-0.276,0-0.5-0.224-0.5-0.5s0.224-0.5,0.5-0.5h2c0.276,0,0.5,0.224,0.5,0.5 S68.776,50.5,68.5,50.5z"/><path fill="#472b29" d="M68.22,53.712c-0.029,0-0.059-0.002-0.088-0.008l-1.97-0.347c-0.271-0.048-0.453-0.307-0.405-0.579 c0.048-0.272,0.312-0.455,0.579-0.405l1.97,0.347c0.271,0.048,0.453,0.307,0.405,0.579C68.668,53.542,68.457,53.712,68.22,53.712z"/><path fill="#472b29" d="M67.385,56.827c-0.057,0-0.114-0.01-0.171-0.03l-1.88-0.684c-0.26-0.094-0.394-0.381-0.299-0.641 c0.094-0.259,0.381-0.392,0.641-0.299l1.88,0.684c0.26,0.094,0.394,0.381,0.299,0.641C67.781,56.701,67.589,56.827,67.385,56.827z"/><path fill="#472b29" d="M66.021,59.75c-0.085,0-0.171-0.021-0.25-0.067l-1.732-1C63.8,58.545,63.718,58.239,63.856,58 c0.138-0.239,0.444-0.319,0.683-0.183l1.732,1c0.239,0.138,0.321,0.444,0.183,0.683C66.362,59.66,66.193,59.75,66.021,59.75z"/><path fill="#472b29" d="M64.172,62.392c-0.113,0-0.228-0.039-0.321-0.117l-1.532-1.286 c-0.212-0.177-0.239-0.493-0.062-0.704s0.493-0.239,0.704-0.062l1.532,1.286c0.212,0.177,0.239,0.493,0.062,0.704 C64.456,62.331,64.314,62.392,64.172,62.392z"/><path fill="#472b29" d="M61.892,64.672c-0.143,0-0.284-0.061-0.383-0.179l-1.285-1.532c-0.178-0.211-0.15-0.527,0.062-0.705 c0.212-0.177,0.527-0.151,0.704,0.062l1.285,1.532c0.178,0.211,0.15,0.527-0.062,0.705C62.119,64.633,62.005,64.672,61.892,64.672z"/><path fill="#472b29" d="M59.25,66.521c-0.172,0-0.341-0.089-0.433-0.25l-1-1.732C57.679,64.3,57.761,63.995,58,63.856 c0.238-0.139,0.545-0.058,0.683,0.183l1,1.732c0.139,0.239,0.057,0.545-0.183,0.683C59.421,66.5,59.335,66.521,59.25,66.521z"/><path fill="#472b29" d="M56.327,67.885c-0.204,0-0.396-0.126-0.47-0.329l-0.684-1.88c-0.095-0.26,0.039-0.546,0.299-0.641 c0.261-0.094,0.547,0.039,0.641,0.299l0.684,1.88c0.095,0.26-0.039,0.547-0.299,0.641C56.441,67.875,56.384,67.885,56.327,67.885z"/><path fill="#472b29" d="M53.212,68.719c-0.237,0-0.448-0.171-0.491-0.413l-0.348-1.969 c-0.048-0.272,0.134-0.531,0.405-0.579c0.267-0.051,0.531,0.132,0.579,0.405l0.348,1.969c0.048,0.271-0.134,0.531-0.405,0.579 C53.271,68.717,53.241,68.719,53.212,68.719z"/><path fill="#472b29" d="M50,69c-0.276,0-0.5-0.224-0.5-0.5v-2c0-0.276,0.224-0.5,0.5-0.5s0.5,0.224,0.5,0.5v2 C50.5,68.776,50.276,69,50,69z"/><path fill="#472b29" d="M46.788,68.719c-0.029,0-0.059-0.002-0.088-0.008c-0.271-0.048-0.453-0.308-0.405-0.579l0.348-1.969 c0.048-0.273,0.311-0.456,0.579-0.405c0.271,0.048,0.453,0.307,0.405,0.579l-0.348,1.969 C47.236,68.548,47.025,68.719,46.788,68.719z"/><path fill="#472b29" d="M43.673,67.885c-0.057,0-0.114-0.01-0.171-0.03c-0.26-0.094-0.394-0.381-0.299-0.641l0.684-1.88 c0.094-0.26,0.38-0.393,0.641-0.299c0.26,0.094,0.394,0.381,0.299,0.641l-0.684,1.88C44.069,67.759,43.877,67.885,43.673,67.885z"/><path fill="#472b29" d="M40.75,66.521c-0.085,0-0.171-0.021-0.25-0.067c-0.239-0.138-0.321-0.444-0.183-0.683l1-1.732 c0.138-0.24,0.445-0.32,0.683-0.183c0.239,0.138,0.321,0.444,0.183,0.683l-1,1.732C41.091,66.432,40.922,66.521,40.75,66.521z"/><path fill="#472b29" d="M38.108,64.672c-0.113,0-0.228-0.039-0.321-0.117c-0.212-0.178-0.239-0.493-0.062-0.705l1.285-1.532 c0.177-0.212,0.493-0.238,0.704-0.062c0.212,0.178,0.239,0.493,0.062,0.705l-1.285,1.532 C38.393,64.611,38.251,64.672,38.108,64.672z"/><path fill="#472b29" d="M35.828,62.392c-0.143,0-0.284-0.061-0.383-0.179c-0.178-0.211-0.15-0.527,0.062-0.704l1.532-1.286 c0.211-0.178,0.527-0.15,0.704,0.062c0.178,0.211,0.15,0.527-0.062,0.704l-1.532,1.286C36.056,62.353,35.941,62.392,35.828,62.392z"/><path fill="#472b29" d="M33.979,59.75c-0.172,0-0.341-0.09-0.433-0.25c-0.139-0.239-0.057-0.545,0.183-0.683l1.732-1 C35.7,57.679,36.006,57.76,36.144,58c0.139,0.239,0.057,0.545-0.183,0.683l-1.732,1C34.149,59.729,34.063,59.75,33.979,59.75z"/><path fill="#472b29" d="M32.615,56.827c-0.204,0-0.396-0.126-0.47-0.329c-0.095-0.26,0.039-0.546,0.299-0.641l1.88-0.684 c0.26-0.094,0.547,0.039,0.641,0.299c0.095,0.26-0.039,0.546-0.299,0.641l-1.88,0.684C32.729,56.817,32.672,56.827,32.615,56.827z"/><path fill="#472b29" d="M31.78,53.712c-0.237,0-0.448-0.17-0.491-0.413c-0.048-0.272,0.134-0.531,0.405-0.579l1.97-0.347 c0.266-0.05,0.53,0.133,0.579,0.405c0.048,0.272-0.134,0.531-0.405,0.579l-1.97,0.347C31.839,53.71,31.81,53.712,31.78,53.712z"/><path fill="#472b29" d="M33.5,50.5h-2c-0.276,0-0.5-0.224-0.5-0.5s0.224-0.5,0.5-0.5h2c0.276,0,0.5,0.224,0.5,0.5 S33.776,50.5,33.5,50.5z"/><path fill="#472b29" d="M33.752,47.635c-0.029,0-0.059-0.002-0.088-0.008l-1.97-0.347c-0.271-0.048-0.453-0.307-0.405-0.579 c0.048-0.273,0.313-0.456,0.579-0.405l1.97,0.347c0.271,0.048,0.453,0.307,0.405,0.579C34.2,47.464,33.989,47.635,33.752,47.635z"/><path fill="#472b29" d="M34.495,44.856c-0.057,0-0.114-0.01-0.171-0.03l-1.88-0.684c-0.26-0.094-0.394-0.381-0.299-0.641 c0.094-0.259,0.381-0.393,0.641-0.299l1.88,0.684c0.26,0.094,0.394,0.381,0.299,0.641C34.892,44.73,34.699,44.856,34.495,44.856z"/><path fill="#472b29" d="M35.711,42.25c-0.085,0-0.171-0.021-0.25-0.067l-1.732-1c-0.239-0.138-0.321-0.444-0.183-0.683 c0.138-0.239,0.444-0.319,0.683-0.183l1.732,1c0.239,0.138,0.321,0.444,0.183,0.683C36.052,42.16,35.883,42.25,35.711,42.25z"/><path fill="#472b29" d="M37.36,39.894c-0.113,0-0.228-0.039-0.321-0.117l-1.532-1.286c-0.212-0.177-0.239-0.493-0.062-0.704 c0.178-0.212,0.493-0.239,0.704-0.062l1.532,1.286c0.212,0.177,0.239,0.493,0.062,0.704C37.645,39.833,37.503,39.894,37.36,39.894z"/><path fill="#472b29" d="M39.394,37.86c-0.143,0-0.284-0.061-0.383-0.179l-1.285-1.532c-0.178-0.211-0.15-0.527,0.062-0.705 c0.212-0.177,0.527-0.15,0.704,0.062l1.285,1.532c0.178,0.211,0.15,0.527-0.062,0.705C39.621,37.822,39.507,37.86,39.394,37.86z"/><path fill="#472b29" d="M41.75,36.21c-0.172,0-0.341-0.089-0.433-0.25l-1-1.732c-0.139-0.239-0.057-0.545,0.183-0.683 c0.238-0.139,0.545-0.058,0.683,0.183l1,1.732c0.139,0.239,0.057,0.545-0.183,0.683C41.921,36.189,41.835,36.21,41.75,36.21z"/><path fill="#472b29" d="M44.356,34.995c-0.204,0-0.396-0.126-0.47-0.329l-0.684-1.879c-0.095-0.259,0.039-0.546,0.299-0.641 s0.547,0.04,0.641,0.299l0.684,1.879c0.095,0.259-0.039,0.546-0.299,0.641C44.471,34.985,44.413,34.995,44.356,34.995z"/><path fill="#472b29" d="M47.134,34.25c-0.237,0-0.448-0.17-0.491-0.413l-0.348-1.969c-0.048-0.272,0.134-0.531,0.405-0.579 c0.266-0.05,0.53,0.133,0.579,0.405l0.348,1.969c0.048,0.272-0.134,0.531-0.405,0.579C47.192,34.248,47.163,34.25,47.134,34.25z"/><circle cx="50" cy="50" r="1" fill="#472b29"/><path fill="#472b29" d="M50.166,41.001c-0.003,0-0.006,0-0.009,0c-0.276-0.005-0.496-0.233-0.491-0.509l0.035-2 c0.005-0.276,0.218-0.495,0.509-0.491c0.276,0.005,0.496,0.233,0.491,0.509l-0.035,2C50.661,40.783,50.438,41.001,50.166,41.001z"/><path fill="#472b29" d="M52.137,41.244c-0.037,0-0.074-0.004-0.112-0.013c-0.27-0.063-0.438-0.331-0.375-0.6l0.45-1.949 c0.063-0.268,0.329-0.438,0.6-0.375c0.27,0.063,0.438,0.331,0.375,0.6l-0.45,1.949C52.57,41.087,52.364,41.244,52.137,41.244z"/><path fill="#472b29" d="M54.015,41.89c-0.071,0-0.143-0.015-0.211-0.047c-0.251-0.117-0.359-0.414-0.242-0.665l0.846-1.813 c0.117-0.25,0.416-0.356,0.664-0.242c0.251,0.117,0.359,0.414,0.242,0.665l-0.846,1.813C54.383,41.783,54.202,41.89,54.015,41.89z"/><path fill="#472b29" d="M55.717,42.913c-0.105,0-0.211-0.033-0.301-0.101c-0.221-0.167-0.265-0.48-0.099-0.7l1.204-1.597 c0.167-0.221,0.481-0.264,0.7-0.099c0.221,0.167,0.265,0.48,0.099,0.7l-1.204,1.597C56.018,42.844,55.868,42.913,55.717,42.913z"/><path fill="#472b29" d="M57.17,44.268c-0.14,0-0.278-0.058-0.377-0.172c-0.182-0.208-0.159-0.524,0.049-0.706l1.509-1.313 c0.209-0.181,0.524-0.159,0.705,0.049c0.182,0.208,0.159,0.524-0.049,0.706l-1.509,1.313C57.403,44.227,57.286,44.268,57.17,44.268 z"/><path fill="#472b29" d="M58.309,45.895c-0.176,0-0.346-0.093-0.438-0.258c-0.134-0.241-0.046-0.546,0.195-0.68l1.75-0.97 c0.239-0.134,0.545-0.046,0.68,0.195c0.134,0.241,0.046,0.546-0.195,0.68l-1.75,0.97C58.475,45.875,58.391,45.895,58.309,45.895z"/><path fill="#472b29" d="M59.085,47.723c-0.214,0-0.412-0.138-0.479-0.354c-0.08-0.264,0.068-0.544,0.332-0.625l1.912-0.585 c0.267-0.084,0.544,0.068,0.625,0.332c0.08,0.264-0.068,0.544-0.332,0.625l-1.912,0.585C59.183,47.716,59.133,47.723,59.085,47.723 z"/><path fill="#472b29" d="M48.187,41.174c-0.234,0-0.443-0.166-0.49-0.404l-0.382-1.963c-0.053-0.271,0.125-0.534,0.396-0.586 c0.268-0.055,0.533,0.124,0.587,0.395l0.382,1.963c0.053,0.271-0.125,0.534-0.396,0.586C48.251,41.171,48.219,41.174,48.187,41.174 z"/><path fill="#472b29" d="M59.753,56.594c-0.091,0-0.183-0.024-0.265-0.076l-1.696-1.06c-0.234-0.146-0.306-0.455-0.159-0.689 c0.146-0.234,0.457-0.305,0.688-0.159l1.696,1.06c0.234,0.146,0.306,0.455,0.159,0.689C60.082,56.511,59.919,56.594,59.753,56.594z"/><path fill="#472b29" d="M58.272,58.489c-0.125,0-0.25-0.046-0.348-0.141l-1.438-1.39c-0.198-0.191-0.204-0.508-0.012-0.707 c0.19-0.198,0.508-0.205,0.707-0.012l1.438,1.39c0.198,0.191,0.204,0.508,0.012,0.707C58.534,58.438,58.403,58.489,58.272,58.489z"/><path fill="#472b29" d="M56.431,60.034c-0.16,0-0.318-0.077-0.414-0.22l-1.118-1.658c-0.155-0.229-0.095-0.54,0.135-0.694 c0.226-0.152,0.54-0.094,0.693,0.135l1.118,1.658c0.155,0.229,0.095,0.54-0.135,0.694C56.625,60.006,56.527,60.034,56.431,60.034z"/><path fill="#472b29" d="M54.308,61.163c-0.197,0-0.385-0.118-0.464-0.313l-0.749-1.854 c-0.104-0.256,0.021-0.548,0.276-0.651c0.255-0.104,0.547,0.02,0.651,0.276l0.749,1.854c0.104,0.256-0.021,0.548-0.276,0.651 C54.434,61.151,54.37,61.163,54.308,61.163z"/><path fill="#472b29" d="M51.996,61.825c-0.237,0-0.448-0.17-0.491-0.413l-0.348-1.97c-0.048-0.272,0.134-0.531,0.405-0.579 c0.265-0.048,0.53,0.133,0.579,0.405l0.348,1.97c0.048,0.272-0.134,0.531-0.405,0.579C52.055,61.823,52.025,61.825,51.996,61.825z"/><path fill="#472b29" d="M49.599,61.993c-0.006,0-0.012,0-0.018,0c-0.275-0.009-0.491-0.241-0.482-0.517l0.069-1.999 c0.011-0.276,0.247-0.494,0.518-0.482c0.275,0.009,0.491,0.241,0.482,0.517l-0.069,1.999 C50.089,61.781,49.867,61.993,49.599,61.993z"/><path fill="#472b29" d="M47.218,61.658c-0.04,0-0.08-0.005-0.121-0.015c-0.268-0.067-0.431-0.338-0.364-0.606l0.484-1.94 c0.066-0.268,0.333-0.431,0.606-0.364c0.268,0.067,0.431,0.338,0.364,0.606l-0.484,1.94C47.646,61.506,47.442,61.658,47.218,61.658 z"/><path fill="#472b29" d="M60.807,54.433c-0.057,0-0.114-0.01-0.171-0.03l-1.88-0.684c-0.26-0.094-0.394-0.381-0.299-0.641 s0.382-0.394,0.641-0.299l1.88,0.684c0.26,0.094,0.394,0.381,0.299,0.641C61.202,54.307,61.011,54.433,60.807,54.433z"/><path fill="#472b29" d="M39.754,55.721c-0.182,0-0.357-0.1-0.445-0.273c-0.126-0.246-0.027-0.547,0.219-0.672l1.781-0.908 c0.243-0.124,0.547-0.028,0.672,0.218c0.126,0.246,0.027,0.547-0.219,0.672l-1.781,0.908 C39.908,55.703,39.831,55.721,39.754,55.721z"/><path fill="#472b29" d="M38.892,53.477c-0.221,0-0.423-0.147-0.483-0.371c-0.071-0.267,0.087-0.541,0.354-0.612l1.932-0.518 c0.271-0.07,0.541,0.086,0.613,0.354c0.071,0.267-0.087,0.541-0.354,0.612l-1.932,0.518C38.978,53.471,38.935,53.477,38.892,53.477 z"/><path fill="#472b29" d="M38.516,51.102c-0.265,0-0.485-0.207-0.499-0.474c-0.015-0.276,0.197-0.511,0.473-0.526l1.997-0.105 c0.275-0.007,0.512,0.198,0.525,0.473c0.015,0.276-0.197,0.511-0.473,0.526l-1.997,0.105 C38.533,51.102,38.524,51.102,38.516,51.102z"/><path fill="#472b29" d="M40.618,49.014c-0.026,0-0.053-0.002-0.079-0.006l-1.976-0.313 c-0.272-0.043-0.459-0.299-0.416-0.572c0.043-0.273,0.302-0.459,0.572-0.416l1.976,0.313c0.272,0.043,0.459,0.299,0.416,0.572 C41.072,48.838,40.859,49.014,40.618,49.014z"/><path fill="#472b29" d="M41.131,47.096c-0.06,0-0.12-0.011-0.179-0.033l-1.867-0.717c-0.258-0.099-0.387-0.388-0.288-0.646 c0.099-0.257,0.389-0.386,0.646-0.288l1.867,0.717c0.258,0.099,0.387,0.388,0.288,0.646C41.521,46.974,41.332,47.096,41.131,47.096 z"/><path fill="#472b29" d="M42.032,45.326c-0.094,0-0.188-0.026-0.272-0.081l-1.677-1.089c-0.231-0.15-0.297-0.46-0.146-0.692 c0.151-0.231,0.462-0.296,0.691-0.147l1.677,1.089c0.231,0.15,0.297,0.46,0.146,0.692C42.355,45.246,42.195,45.326,42.032,45.326z"/><path fill="#472b29" d="M43.282,43.783c-0.128,0-0.256-0.049-0.354-0.146l-1.414-1.415c-0.195-0.195-0.195-0.512,0-0.707 s0.512-0.195,0.707,0l1.414,1.415c0.195,0.195,0.195,0.512,0,0.707C43.538,43.734,43.41,43.783,43.282,43.783z"/><path fill="#472b29" d="M41.063,57.737c-0.146,0-0.29-0.063-0.389-0.186c-0.174-0.214-0.141-0.529,0.074-0.703l1.555-1.259 c0.215-0.174,0.529-0.141,0.703,0.074c0.174,0.214,0.141,0.529-0.074,0.703l-1.555,1.259 C41.284,57.701,41.173,57.737,41.063,57.737z"/><path fill="#472b29" d="M40.923,60.091c-0.416,0-0.813-0.17-1.101-0.476C37.357,57,36,53.585,36,50 c0-4.19,1.852-8.125,5.08-10.795c0.351-0.292,0.81-0.407,1.258-0.318c0.445,0.088,0.823,0.369,1.035,0.769l4.447,8.378 c0.62,1.167,0.534,2.565-0.225,3.648l-5.44,7.77c-0.259,0.371-0.668,0.603-1.121,0.636C40.997,60.09,40.96,60.091,40.923,60.091z M42.043,39.857c-0.118,0-0.232,0.041-0.325,0.118C38.72,42.456,37,46.109,37,50c0,3.33,1.261,6.5,3.55,8.93 c0.106,0.113,0.259,0.173,0.412,0.16c0.089-0.006,0.256-0.042,0.374-0.212l5.441-7.77c0.541-0.773,0.603-1.772,0.16-2.606 l-4.447-8.378c-0.098-0.183-0.259-0.24-0.347-0.257C42.11,39.86,42.076,39.857,42.043,39.857z"/><path fill="#472b29" d="M62.237,49h-9.534c-1.298,0-2.482-0.712-3.091-1.858l-4.475-8.423 c-0.213-0.4-0.234-0.87-0.059-1.289c0.175-0.417,0.522-0.731,0.955-0.859C47.307,36.192,48.641,36,50,36 c6.632,0,12.399,4.709,13.713,11.197c0.09,0.442-0.023,0.898-0.311,1.249C63.115,48.798,62.69,49,62.237,49z M50,37 c-1.263,0-2.501,0.178-3.681,0.529c-0.144,0.042-0.26,0.147-0.318,0.287c-0.059,0.141-0.052,0.299,0.02,0.433l4.475,8.424 C50.93,47.491,51.776,48,52.703,48h9.534c0.151,0,0.294-0.068,0.391-0.187c0.097-0.118,0.135-0.27,0.104-0.417 C61.513,41.372,56.158,37,50,37z"/><path fill="#472b29" d="M50,64c-1.935,0-3.812-0.389-5.576-1.157c-0.414-0.18-0.722-0.533-0.845-0.969 c-0.124-0.438-0.045-0.902,0.216-1.274l5.68-8.108C50.129,51.558,51.201,51,52.342,51h9.896c0.453,0,0.878,0.202,1.165,0.554 c0.287,0.351,0.4,0.807,0.311,1.25C62.399,59.291,56.632,64,50,64z M52.342,52c-0.815,0-1.581,0.398-2.049,1.066l-5.68,8.108 c-0.087,0.125-0.113,0.281-0.072,0.429c0.024,0.085,0.093,0.241,0.281,0.323C46.461,62.639,48.203,63,50,63 c6.158,0,11.513-4.372,12.732-10.396c0.03-0.148-0.008-0.3-0.104-0.418C62.531,52.068,62.389,52,62.237,52H52.342z"/><path fill="#fdfcef" d="M35.5,76.5c0,0,1.567,0,3.5,0s3.5-1.567,3.5-3.5c0-1.781-1.335-3.234-3.055-3.455 C39.473,69.366,39.5,69.187,39.5,69c0-1.933-1.567-3.5-3.5-3.5c-1.032,0-1.95,0.455-2.59,1.165 c-0.384-1.808-1.987-3.165-3.91-3.165c-2.209,0-4,1.791-4,4c0,0.191,0.03,0.374,0.056,0.558C25.128,67.714,24.592,67.5,24,67.5 c-1.228,0-2.245,0.887-2.455,2.055C21.366,69.527,21.187,69.5,21,69.5c-1.933,0-3.5,1.567-3.5,3.5s1.567,3.5,3.5,3.5s7.5,0,7.5,0 V77h7V76.5z"/><path fill="#472b29" d="M37.25,72C37.112,72,37,71.888,37,71.75c0-1.223,0.995-2.218,2.218-2.218 c0.034,0.009,0.737-0.001,1.244,0.136c0.133,0.036,0.212,0.173,0.176,0.306c-0.036,0.134-0.173,0.213-0.306,0.176 c-0.444-0.12-1.1-0.12-1.113-0.118c-0.948,0-1.719,0.771-1.719,1.718C37.5,71.888,37.388,72,37.25,72z M30.5,76 c-0.276,0-0.5,0.224-0.5,0.5s0.224,0.5,0.5,0.5s0.5-0.224,0.5-0.5S30.776,76,30.5,76z"/><path fill="#472b29" d="M39,77h-3.5c-0.276,0-0.5-0.224-0.5-0.5s0.224-0.5,0.5-0.5H39c1.654,0,3-1.346,3-3 c0-1.496-1.125-2.768-2.618-2.959c-0.134-0.018-0.255-0.088-0.336-0.196s-0.115-0.244-0.094-0.377C38.975,69.314,39,69.16,39,69 c0-1.654-1.346-3-3-3c-0.85,0-1.638,0.355-2.219,1c-0.125,0.139-0.321,0.198-0.5,0.148c-0.182-0.049-0.321-0.195-0.36-0.379 C32.58,65.165,31.141,64,29.5,64c-1.93,0-3.5,1.57-3.5,3.5c0,0.143,0.021,0.28,0.041,0.418c0.029,0.203-0.063,0.438-0.242,0.54 s-0.396,0.118-0.556-0.01C24.878,68.155,24.449,68,24,68c-0.966,0-1.792,0.691-1.963,1.644c-0.048,0.267-0.296,0.446-0.569,0.405 C21.314,70.025,21.16,70,21,70c-1.654,0-3,1.346-3,3s1.346,3,3,3h7.5c0.276,0,0.5,0.224,0.5,0.5S28.776,77,28.5,77H21 c-2.206,0-4-1.794-4-4s1.794-4,4-4c0.059,0,0.116,0.002,0.174,0.006C21.588,67.82,22.711,67,24,67c0.349,0,0.689,0.061,1.011,0.18 C25.176,64.847,27.126,63,29.5,63c1.831,0,3.466,1.127,4.153,2.774C34.333,65.276,35.155,65,36,65c2.206,0,4,1.794,4,4 c0,0.048-0.001,0.095-0.004,0.142C41.739,69.59,43,71.169,43,73C43,75.206,41.206,77,39,77z"/><path fill="#472b29" d="M33.5,76c-0.159,0-0.841,0-1,0c-0.276,0-0.5,0.224-0.5,0.5s0.224,0.5,0.5,0.5c0.159,0,0.841,0,1,0 c0.276,0,0.5-0.224,0.5-0.5S33.776,76,33.5,76z"/></svg>